<svg id="svg" xmlns="http://www.w3.org/2000/svg" xmlns:xlink="http://www.w3.org/1999/xlink" width="400" height="55.93984962406015" viewBox="0, 0, 400,55.93984962406015"><g id="svgg"><path id="path0" d="M16.942 3.635 C 9.757 4.533,5.101 9.290,4.215 16.636 C 3.946 18.864,3.946 39.281,4.215 41.509 C 5.122 49.033,9.822 53.696,17.343 54.533 C 19.689 54.794,39.659 54.794,42.005 54.533 C 49.526 53.696,54.226 49.033,55.133 41.509 C 55.402 39.281,55.402 18.864,55.133 16.636 C 54.236 9.199,49.574 4.507,42.206 3.625 C 40.041 3.367,19.026 3.374,16.942 3.635 M111.022 5.495 C 108.106 6.122,107.788 6.936,107.705 13.985 L 107.640 19.449 106.151 19.449 L 104.662 19.449 104.662 20.752 L 104.662 22.055 106.165 22.055 L 107.669 22.055 107.669 33.083 L 107.669 44.110 108.972 44.110 L 110.276 44.110 110.276 33.083 L 110.276 22.055 112.782 22.055 L 115.288 22.055 115.288 20.752 L 115.288 19.449 112.769 19.449 L 110.250 19.449 110.315 14.486 C 110.399 8.032,110.482 7.874,113.734 7.961 L 115.288 8.003 115.288 6.735 L 115.288 5.466 114.536 5.342 C 113.453 5.163,112.346 5.211,111.022 5.495 M309.920 5.495 C 307.004 6.122,306.685 6.936,306.602 13.985 L 306.538 19.449 305.048 19.449 L 303.559 19.449 303.559 20.752 L 303.559 22.055 305.063 22.055 L 306.566 22.055 306.566 33.083 L 306.566 44.110 307.870 44.110 L 309.173 44.110 309.173 33.083 L 309.173 22.055 311.679 22.055 L 314.185 22.055 314.185 20.752 L 314.185 19.449 311.666 19.449 L 309.148 19.449 309.212 14.486 C 309.296 8.032,309.379 7.874,312.632 7.961 L 314.185 8.003 314.185 6.735 L 314.185 5.466 313.434 5.342 C 312.351 5.163,311.243 5.211,309.920 5.495 M389.418 23.709 L 389.474 41.604 389.975 42.607 C 390.762 44.180,391.679 44.588,394.637 44.680 L 396.992 44.754 396.992 43.380 L 396.992 42.005 395.109 42.005 C 391.740 42.005,391.982 43.496,391.981 22.807 L 391.980 5.815 390.672 5.815 L 389.363 5.815 389.418 23.709 M319.599 11.128 L 319.599 14.637 320.902 14.637 L 322.206 14.637 322.206 11.128 L 322.206 7.619 320.902 7.619 L 319.599 7.619 319.599 11.128 M355.689 11.128 L 355.689 14.637 356.992 14.637 L 358.296 14.637 358.296 11.128 L 358.296 7.619 356.992 7.619 L 355.689 7.619 355.689 11.128 M43.262 8.685 C 46.962 9.671,49.283 12.115,50.153 15.940 C 50.550 17.689,50.550 40.456,50.153 42.206 C 49.250 46.178,46.779 48.648,42.807 49.551 C 40.795 50.008,18.009 49.944,16.189 49.476 C 12.412 48.505,10.076 46.076,9.196 42.206 C 8.798 40.456,8.798 17.689,9.196 15.940 C 10.215 11.455,13.126 8.961,18.045 8.359 C 20.309 8.082,42.054 8.363,43.262 8.685 M189.875 15.138 L 189.875 19.449 188.371 19.449 L 186.867 19.449 186.867 20.752 L 186.867 22.055 188.371 22.055 L 189.875 22.055 189.875 31.268 C 189.875 42.428,189.976 43.085,191.875 44.194 C 192.643 44.643,195.683 44.879,197.391 44.622 L 198.296 44.487 198.296 43.230 L 198.296 41.974 196.013 41.989 C 192.312 42.015,192.484 42.552,192.482 30.927 L 192.481 22.055 195.388 22.055 L 198.296 22.055 198.296 20.752 L 198.296 19.449 195.388 19.449 L 192.481 19.449 192.481 15.138 L 192.481 10.827 191.178 10.827 L 189.875 10.827 189.875 15.138 M79.398 11.555 C 67.532 13.089,59.757 24.504,61.549 37.759 C 63.034 48.736,71.969 55.110,83.682 53.549 C 86.537 53.169,93.033 50.858,93.033 50.223 C 93.033 49.981,92.296 48.119,92.138 47.961 C 92.101 47.924,91.543 48.159,90.897 48.483 C 79.238 54.344,67.491 50.532,64.770 40.006 C 61.301 26.580,69.669 14.046,82.105 14.041 C 91.573 14.038,97.105 19.508,97.105 28.872 C 97.105 36.111,94.038 40.943,89.424 40.974 C 85.543 41.000,85.539 40.948,88.745 29.996 C 90.000 25.706,91.028 22.116,91.028 22.017 C 91.028 21.917,90.428 21.863,89.694 21.896 L 88.361 21.955 88.071 22.957 C 87.691 24.272,87.747 24.262,86.795 23.181 C 84.146 20.172,78.853 20.670,75.379 24.256 C 71.103 28.670,69.733 37.500,72.785 40.975 C 75.037 43.541,79.461 43.604,82.533 41.116 L 83.763 40.119 83.886 40.735 C 84.413 43.370,89.661 44.441,93.282 42.651 C 100.936 38.869,102.296 24.037,95.653 16.795 C 92.110 12.932,85.423 10.776,79.398 11.555 M41.919 12.582 C 39.385 13.874,39.848 17.798,42.607 18.398 C 44.841 18.884,46.629 17.365,46.463 15.119 C 46.294 12.818,43.985 11.528,41.919 12.582 M26.309 16.244 C 16.430 18.833,13.108 31.172,20.341 38.405 C 28.679 46.743,42.907 40.859,42.907 29.073 C 42.907 20.421,34.669 14.054,26.309 16.244 M127.475 18.958 C 125.706 19.387,123.936 20.382,122.710 21.636 C 117.296 27.176,118.405 39.781,124.628 43.428 C 128.143 45.489,134.490 45.378,138.793 43.181 L 139.340 42.901 138.929 41.852 C 138.370 40.424,138.387 40.431,136.968 41.008 C 128.526 44.438,122.624 41.180,121.973 32.732 L 121.846 31.078 130.928 31.078 L 140.010 31.078 139.882 29.123 C 139.378 21.431,134.330 17.296,127.475 18.958 M212.085 18.939 C 206.411 20.126,203.399 24.623,203.418 31.880 C 203.439 40.291,207.521 44.906,214.937 44.906 C 222.353 44.906,226.435 40.291,226.457 31.880 C 226.482 22.417,220.632 17.150,212.085 18.939 M284.266 18.939 C 278.591 20.126,275.579 24.623,275.598 31.880 C 275.620 40.291,279.702 44.906,287.118 44.906 C 294.534 44.906,298.616 40.291,298.638 31.880 C 298.662 22.417,292.813 17.150,284.266 18.939 M338.800 18.840 C 331.935 20.095,328.224 27.130,329.934 35.648 C 331.579 43.836,339.834 47.281,348.562 43.421 L 349.677 42.928 349.260 41.865 C 348.695 40.423,348.714 40.431,347.298 41.006 C 338.423 44.612,332.344 40.820,332.345 31.679 C 332.347 23.250,338.280 19.180,346.214 22.166 C 346.930 22.436,347.551 22.657,347.593 22.657 C 347.635 22.657,347.669 22.029,347.669 21.262 L 347.669 19.867 346.015 19.340 C 344.192 18.759,340.602 18.510,338.800 18.840 M154.642 19.142 C 153.289 19.524,151.494 20.434,150.308 21.339 C 149.114 22.250,149.173 22.280,149.173 20.752 L 149.173 19.449 147.870 19.449 L 146.566 19.449 146.566 31.779 L 146.566 44.110 147.870 44.110 L 149.173 44.110 149.173 34.536 L 149.174 24.962 150.226 24.111 C 154.554 20.610,160.332 20.585,162.049 24.060 C 162.857 25.698,163.008 27.618,163.008 36.336 L 163.008 44.110 164.327 44.110 L 165.647 44.110 165.594 34.749 L 165.541 25.388 166.684 24.349 C 169.681 21.625,173.661 20.737,176.545 22.148 C 179.052 23.375,179.241 24.307,179.245 35.439 L 179.248 44.110 180.562 44.110 L 181.876 44.110 181.815 34.637 C 181.755 25.314,181.746 25.142,181.290 23.876 C 179.096 17.797,171.507 17.022,165.547 22.268 L 164.629 23.076 164.236 22.306 C 162.871 19.630,158.278 18.116,154.642 19.142 M242.060 19.142 C 240.708 19.524,238.912 20.434,237.727 21.339 C 236.533 22.250,236.591 22.280,236.591 20.752 L 236.591 19.449 235.288 19.449 L 233.985 19.449 233.985 31.779 L 233.985 44.110 235.288 44.110 L 236.591 44.110 236.592 34.536 L 236.592 24.962 237.645 24.111 C 241.972 20.610,247.750 20.585,249.467 24.060 C 250.276 25.698,250.426 27.618,250.426 36.336 L 250.426 44.110 251.746 44.110 L 253.065 44.110 253.012 34.749 L 252.960 25.388 254.103 24.349 C 257.100 21.625,261.079 20.737,263.963 22.148 C 266.471 23.375,266.660 24.307,266.664 35.439 L 266.667 44.110 267.981 44.110 L 269.295 44.110 269.234 34.637 C 269.173 25.314,269.165 25.142,268.708 23.876 C 266.515 17.797,258.926 17.022,252.966 22.268 L 252.048 23.076 251.655 22.306 C 250.290 19.630,245.697 18.116,242.060 19.142 M319.599 31.779 L 319.599 44.110 320.902 44.110 L 322.206 44.110 322.206 31.779 L 322.206 19.449 320.902 19.449 L 319.599 19.449 319.599 31.779 M355.689 31.779 L 355.689 44.110 356.992 44.110 L 358.296 44.110 358.296 31.779 L 358.296 19.449 356.992 19.449 L 355.689 19.449 355.689 31.779 M370.526 20.634 L 370.526 21.855 372.595 21.855 C 377.435 21.855,378.997 23.242,379.416 27.911 L 379.518 29.055 378.481 28.645 C 371.681 25.956,365.152 28.849,364.307 34.925 C 363.139 43.324,371.622 47.757,378.628 42.410 L 379.549 41.707 379.549 42.909 L 379.549 44.110 380.852 44.110 L 382.155 44.110 382.152 36.441 C 382.145 21.351,381.305 19.690,373.584 19.491 L 370.526 19.413 370.526 20.634 M32.682 21.224 C 38.921 23.643,39.959 32.120,34.484 35.945 C 29.779 39.232,23.303 36.952,21.621 31.414 C 19.635 24.876,26.290 18.745,32.682 21.224 M133.196 21.858 C 135.312 22.650,137.143 25.582,137.143 28.180 C 137.143 28.429,136.070 28.471,129.698 28.471 L 122.253 28.471 122.361 27.820 C 123.184 22.857,128.317 20.033,133.196 21.858 M216.655 21.472 C 222.096 22.475,225.318 29.128,223.444 35.489 C 220.590 45.180,208.107 44.405,206.213 34.418 C 204.706 26.473,209.763 20.203,216.655 21.472 M288.835 21.472 C 294.276 22.475,297.499 29.128,295.625 35.489 C 292.770 45.180,280.288 44.405,278.393 34.418 C 276.886 26.473,281.944 20.203,288.835 21.472 M83.664 24.100 C 84.534 24.361,86.518 26.039,86.724 26.690 C 86.878 27.174,84.535 35.505,83.992 36.405 C 81.892 39.888,77.129 41.439,74.942 39.353 C 72.769 37.280,74.068 29.930,77.235 26.376 C 79.180 24.194,81.379 23.416,83.664 24.100 M376.838 30.700 C 377.281 30.818,378.075 31.099,378.601 31.324 L 379.558 31.732 379.503 35.361 L 379.449 38.990 377.991 40.033 C 372.540 43.936,366.917 42.035,366.917 36.291 C 366.917 31.682,371.284 29.222,376.838 30.700 " stroke="none" fill="#000000" fill-rule="evenodd"></path></g></svg>