<svg id="svg" xmlns="http://www.w3.org/2000/svg" xmlns:xlink="http://www.w3.org/1999/xlink" width="400" height="400" viewBox="0, 0, 400,400"><g id="svgg"><path id="path0" d="M99.761 106.598 C 79.756 118.592,63.262 128.605,63.109 128.848 C 62.907 129.168,63.401 135.109,64.893 150.312 C 70.664 209.121,71.734 219.847,71.866 220.264 C 71.945 220.514,86.708 235.046,104.672 252.559 L 137.334 284.400 168.425 299.800 C 185.526 308.270,199.811 315.200,200.170 315.200 C 200.530 315.200,214.768 308.255,231.812 299.767 L 262.800 284.334 272.133 275.196 C 277.267 270.170,291.931 255.858,304.720 243.390 C 317.509 230.923,328.036 220.558,328.113 220.357 C 328.469 219.428,337.106 129.689,336.894 129.108 C 336.584 128.254,264.290 84.800,263.180 84.800 C 262.273 84.800,265.250 82.526,230.950 109.428 C 215.614 121.456,202.387 131.826,201.555 132.474 C 200.516 133.284,199.927 133.581,199.670 133.426 C 199.464 133.302,185.464 122.340,168.558 109.067 C 144.355 90.064,137.641 84.918,136.977 84.862 C 136.273 84.803,130.097 88.410,99.761 106.598 M144.222 113.000 C 148.792 126.017,154.375 141.915,156.628 148.330 L 160.724 159.994 147.762 168.489 C 140.633 173.161,131.992 178.830,128.560 181.086 L 122.319 185.188 95.049 157.727 C 80.050 142.624,67.873 130.168,67.989 130.046 C 68.249 129.775,135.539 89.360,135.756 89.345 C 135.842 89.338,139.651 99.983,144.222 113.000 M297.940 109.500 C 316.453 120.591,331.748 129.804,331.929 129.971 C 332.183 130.207,326.030 136.504,304.854 157.679 L 277.450 185.082 266.792 178.067 C 260.930 174.208,252.318 168.546,247.654 165.483 C 241.275 161.295,239.214 159.814,239.333 159.503 C 239.579 158.863,262.937 92.596,263.526 90.867 C 263.814 90.023,264.101 89.333,264.164 89.333 C 264.228 89.333,279.427 98.408,297.940 109.500 M169.067 114.127 C 184.247 126.037,196.667 135.899,196.667 136.042 C 196.667 136.792,163.880 157.870,163.652 157.266 C 163.528 156.937,158.329 142.155,152.100 124.419 C 145.870 106.683,140.699 92.043,140.607 91.886 C 140.516 91.729,140.672 91.796,140.954 92.036 C 141.236 92.276,153.887 102.217,169.067 114.127 M247.713 124.826 C 241.391 142.778,236.139 157.541,236.043 157.631 C 235.946 157.721,231.846 155.141,226.932 151.898 C 222.018 148.654,214.607 143.771,210.463 141.046 L 202.929 136.092 230.990 114.061 C 246.424 101.943,259.086 92.064,259.129 92.107 C 259.172 92.150,254.035 106.873,247.713 124.826 M117.113 185.200 L 119.131 187.333 97.101 201.806 C 84.984 209.765,75.042 216.185,75.008 216.072 C 74.973 215.959,73.205 198.047,71.078 176.267 C 68.951 154.487,67.151 136.241,67.078 135.721 C 66.958 134.869,106.368 173.840,117.113 185.200 M329.047 175.067 C 326.868 197.213,325.051 215.549,325.010 215.812 C 324.950 216.187,320.202 213.179,303.200 201.993 C 291.247 194.130,281.292 187.596,281.079 187.474 C 280.788 187.307,287.168 180.741,306.813 160.990 C 321.179 146.546,332.950 134.744,332.971 134.764 C 332.991 134.784,331.225 152.920,329.047 175.067 M209.648 144.879 C 214.828 148.296,222.530 153.360,226.762 156.132 C 230.995 158.905,234.508 161.305,234.570 161.466 C 234.632 161.626,227.468 182.212,218.651 207.212 C 209.833 232.212,202.000 254.423,201.243 256.570 L 199.867 260.473 184.133 215.663 C 175.480 191.017,167.664 168.740,166.764 166.158 L 165.129 161.465 182.364 150.090 C 191.844 143.835,199.742 138.705,199.915 138.691 C 200.088 138.678,204.468 141.462,209.648 144.879 M178.705 211.151 C 187.777 237.011,195.200 258.234,195.200 258.313 C 195.200 258.433,172.948 236.086,132.994 195.841 L 125.027 187.815 143.513 175.651 C 154.396 168.489,162.043 163.619,162.105 163.810 C 162.163 163.988,169.633 185.291,178.705 211.151 M257.025 176.000 C 266.721 182.380,274.656 187.660,274.660 187.733 C 274.663 187.807,258.891 203.707,239.610 223.067 C 205.358 257.459,204.565 258.233,205.046 256.800 C 205.426 255.669,222.993 205.809,236.452 167.662 L 237.936 163.458 238.666 163.929 C 239.067 164.188,247.329 169.620,257.025 176.000 M164.574 232.856 L 192.579 261.046 190.489 260.279 C 164.242 250.646,122.502 235.362,103.003 228.242 C 89.181 223.196,77.873 219.007,77.874 218.933 C 77.875 218.860,87.743 212.304,99.804 204.365 L 121.733 189.929 129.151 197.298 C 133.231 201.351,149.171 217.352,164.574 232.856 M300.219 204.400 C 312.266 212.320,322.123 218.860,322.124 218.933 C 322.124 219.007,312.916 222.416,301.662 226.510 C 285.717 232.311,215.751 257.816,208.267 260.557 C 206.856 261.073,208.161 259.733,242.400 225.480 C 261.980 205.893,278.070 189.897,278.157 189.933 C 278.243 189.970,288.171 196.480,300.219 204.400 M106.800 233.512 C 175.246 258.648,199.626 267.497,200.125 267.386 C 200.423 267.320,216.267 261.559,235.333 254.584 C 288.875 234.999,319.041 224.019,319.112 224.090 C 319.170 224.147,312.030 231.131,271.691 270.474 L 260.582 281.309 230.383 296.408 L 200.185 311.508 169.759 296.389 L 139.333 281.269 116.133 258.600 C 103.373 246.132,90.173 233.233,86.800 229.935 C 83.427 226.637,80.907 224.022,81.200 224.123 C 81.493 224.224,93.013 228.449,106.800 233.512 " stroke="none" fill="#000000" fill-rule="evenodd"></path></g></svg>